<?xml version="1.0" encoding="UTF-8"?>
<!-- Generator: Adobe Illustrator 26.3.1, SVG Export Plug-In . SVG Version: 6.00 Build 0)  -->
<svg version="1.1" id="Layer_1" xmlns="http://www.w3.org/2000/svg" xmlns:xlink="http://www.w3.org/1999/xlink" x="0px" y="0px" viewBox="0 0 155 49" style="enable-background:new 0 0 155 49;" xml:space="preserve">
<style type="text/css">
	.st0{fill:#181716;}
	.st1{fill:#FFFFFF;}
</style>
<g>
	<rect x="94.2" y="14.4" class="st0" width="60.8" height="26.2"/>
	<g>
		<path class="st0" d="M13.8,35.8c-0.9-0.5-1.5-1.4-2.1-2.8l-0.7-1.8H3.4l-2.2,5.2H0l7.7-18.1h0.8l6,14.7c0.5,1.1,0.9,1.8,1.3,2.2    c0.4,0.4,1,0.6,1.7,0.7v0.5c-0.3,0.1-0.7,0.1-1.1,0.1C15.6,36.5,14.7,36.3,13.8,35.8z M3.8,30.1h6.7l-3.3-7.9L3.8,30.1z"/>
		<path class="st0" d="M19.7,21.6c0-0.9-0.1-1.6-0.4-2.1c-0.3-0.4-0.8-0.7-1.5-0.7h-0.5v-0.5h7.2c3.5,0,6.2,0.8,8,2.4    c1.8,1.6,2.7,3.8,2.7,6.6c0,1.8-0.4,3.4-1.2,4.8c-0.8,1.4-1.9,2.5-3.4,3.2c-1.5,0.8-3.3,1.2-5.5,1.2h-5.4V21.6z M28.7,34.4    c1.1-0.7,1.9-1.6,2.6-2.8c0.6-1.2,0.9-2.6,0.9-4.3c0-1.6-0.3-3-0.9-4.2c-0.6-1.2-1.5-2.2-2.6-2.9c-1.1-0.7-2.3-1-3.7-1    c-0.9,0-1.8,0.1-2.7,0.4v15.4c1,0.2,2,0.4,2.8,0.4C26.4,35.4,27.6,35.1,28.7,34.4z"/>
		<path class="st0" d="M39.1,21.6c0-0.9-0.1-1.6-0.4-2.1c-0.3-0.4-0.8-0.7-1.5-0.7h-0.5v-0.5h7.2c3.5,0,6.2,0.8,8,2.4    c1.8,1.6,2.7,3.8,2.7,6.6c0,1.8-0.4,3.4-1.2,4.8c-0.8,1.4-1.9,2.5-3.4,3.2c-1.5,0.8-3.3,1.2-5.5,1.2h-5.4V21.6z M48.1,34.4    c1.1-0.7,1.9-1.6,2.6-2.8c0.6-1.2,0.9-2.6,0.9-4.3c0-1.6-0.3-3-0.9-4.2c-0.6-1.2-1.5-2.2-2.6-2.9c-1.1-0.7-2.3-1-3.7-1    c-0.9,0-1.8,0.1-2.7,0.4v15.4c1,0.2,2,0.4,2.8,0.4C45.8,35.4,47,35.1,48.1,34.4z"/>
		<path class="st0" d="M58.5,21.6c0-0.9-0.1-1.6-0.4-2.1c-0.3-0.4-0.8-0.7-1.5-0.7h-0.5v-0.5h11.7c1.6,0,2.3,0.7,2.3,2.2v2.1h-0.5    c0-2.1-1.1-3.2-3.4-3.2H61v7.1h7.4v1.1H61v7.7h4.8c1.3,0,2.2-0.2,3-0.7c0.7-0.5,1.3-1.2,1.7-2.3l0.5,0.1L70,35    c-0.3,0.9-1,1.4-2.1,1.4h-9.5V21.6z"/>
		<path class="st0" d="M75.9,22v14.4h-1.1V21.6c0-0.9-0.2-1.6-0.6-2c-0.4-0.5-1-0.7-1.9-0.7h-0.3v-0.5h1.8c0.8,0,1.6,0.1,2.1,0.4    c0.6,0.3,1.1,0.7,1.6,1.2l9.6,11.9V18.3h1.1v18.4h-0.5L75.9,22z"/>
	</g>
	<g>
		<path class="st1" d="M101.7,21.6c0-0.9-0.1-1.6-0.4-2.1c-0.3-0.4-0.8-0.7-1.5-0.7h-0.5v-0.5h7.1c2,0,3.7,0.3,5.2,1    c1.5,0.7,2.2,1.9,2.2,3.8c0,0.9-0.3,1.6-0.9,2.3c-0.6,0.7-1.5,1.2-2.7,1.6c1.7,0.3,2.9,0.8,3.5,1.5c0.7,0.7,1,1.7,1,2.9    c0,1.8-0.7,3.1-2.2,3.9c-1.5,0.7-3.2,1.1-5.4,1.1h-5.5V21.6z M106.8,26.7c0.7,0,1.5-0.1,2.1-0.4c0.7-0.3,1.2-0.7,1.6-1.3    c0.4-0.6,0.6-1.2,0.6-2c0-0.8-0.2-1.5-0.7-2.1c-0.5-0.6-1.1-1-1.9-1.2c-0.8-0.3-1.5-0.4-2.3-0.4c-0.6,0-1.3,0.1-2.1,0.3v7.1H106.8    z M110.6,34.4c0.9-0.7,1.4-1.6,1.4-2.9s-0.4-2.2-1.3-2.9c-0.9-0.7-2.2-1-3.9-1h-2.6v7.3c0.9,0.3,1.7,0.4,2.6,0.4    C108.4,35.4,109.7,35.1,110.6,34.4z"/>
		<path class="st1" d="M130.1,35.8c-0.9-0.5-1.5-1.4-2.1-2.8l-0.7-1.8h-7.7l-2.2,5.2h-1.2l7.7-18.1h0.8l6,14.7    c0.5,1.1,0.9,1.8,1.3,2.2s1,0.6,1.7,0.7v0.5c-0.3,0.1-0.7,0.1-1.1,0.1C131.8,36.5,131,36.3,130.1,35.8z M120.1,30.1h6.7l-3.3-7.9    L120.1,30.1z"/>
		<path class="st1" d="M137.9,35.8c-1-0.6-1.8-1.5-2.2-2.6c-0.4-1.2-0.6-2.7-0.6-4.6v-7c0-0.9-0.1-1.6-0.4-2.1    c-0.3-0.4-0.8-0.7-1.5-0.7h-0.5v-0.5h2.5c0.7,0,1.2,0.1,1.5,0.3c0.3,0.2,0.6,0.5,0.7,0.9c0.1,0.5,0.2,1.2,0.2,2.1v7.8    c0,2,0.4,3.6,1.1,4.6c0.7,1,2,1.6,3.7,1.6c1.4,0,2.5-0.2,3.3-0.7c0.8-0.5,1.4-1.2,1.7-2.2c0.3-1,0.5-2.3,0.5-4V18.3h1.1v10.3    c0,1.9-0.2,3.4-0.6,4.6c-0.4,1.2-1.1,2-2.1,2.6c-1,0.6-2.4,0.9-4.3,0.9C140.3,36.7,138.9,36.4,137.9,35.8z"/>
	</g>
	<path class="st0" d="M94.9,14.5c-0.5-0.1-0.9-0.1-1.4-0.1h-2.9v0.9H91c1.5,0,2.5,0.4,3.1,1.2c0.4,0.5,0.6,1.1,0.8,1.9V14.5z"/>
</g>
</svg>