<svg width="325" height="107" viewBox="0 0 325 107" fill="none" xmlns="http://www.w3.org/2000/svg">
<path d="M9.8 99.8C9.4 100.2 9 100.5 8.4 100.8C7.8 101.1 7.2 101.2 6.5 101.2C5.3 101.2 4.3 101 3.5 100.5C2.7 100 2 99.4 1.5 98.6C1 97.8 0.7 97 0.5 95.9C0.3 94.9 0.2 93.8 0.2 92.7C0.2 91.5 0.3 90.4 0.6 89.4C0.9 88.4 1.3 87.6 1.8 86.9C2.3 86.2 3 85.7 3.7 85.3C4.5 84.9 5.3 84.7 6.2 84.7C7.1 84.7 7.8 84.9 8.4 85.2C9 85.5 9.4 85.9 9.6 86.3H9.7V79.2H14V86.3H14.1C14.3 85.9 14.7 85.5 15.3 85.2C15.9 84.9 16.6 84.7 17.5 84.7C18.4 84.7 19.3 84.9 20 85.3C20.8 85.7 21.4 86.2 21.9 86.9C22.4 87.6 22.8 88.4 23.1 89.4C23.4 90.4 23.5 91.5 23.5 92.7C23.5 93.8 23.4 94.8 23.2 95.9C23 97 22.6 97.8 22.1 98.6C21.6 99.4 21 100 20.2 100.5C19.4 101 18.4 101.2 17.2 101.2C16.6 101.2 15.9 101.1 15.3 100.8C14.7 100.5 14.2 100.2 13.9 99.8H14V106.3H9.8V99.8ZM7.4 98C8 98 8.6 97.8 9 97.5C9.4 97.2 9.7 96.8 9.7 96.4V89.6C9.5 89 9.2 88.5 8.7 88.3C8.2 88.1 7.7 87.9 7.3 87.9C6.3 87.9 5.5 88.3 5.1 89.2C4.6 90.1 4.4 91.3 4.4 92.8C4.4 93.4 4.4 94.1 4.5 94.7C4.6 95.3 4.8 95.9 5 96.3C5.2 96.8 5.5 97.2 5.9 97.5C6.3 97.9 6.8 98 7.4 98ZM16.4 98C17 98 17.5 97.9 17.9 97.6C18.3 97.3 18.6 96.9 18.8 96.4C19 95.9 19.2 95.4 19.3 94.8C19.4 94.2 19.4 93.6 19.4 92.9C19.4 91.4 19.2 90.2 18.7 89.3C18.2 88.4 17.5 88 16.5 88C16 88 15.6 88.1 15.1 88.4C14.6 88.6 14.3 89.1 14.1 89.7V96.5C14.2 96.9 14.4 97.3 14.8 97.6C15.2 97.9 15.7 98 16.4 98Z" fill="black"/>
<path d="M37.2 101.2C36.5 101.2 35.8 101.1 35.1 100.9C34.5 100.7 33.9 100.4 33.4 100.1C32.9 99.7 32.5 99.2 32.3 98.7C32 98.1 31.9 97.4 31.9 96.6C31.9 95.7 32.1 95 32.4 94.4C32.7 93.8 33.1 93.4 33.6 93C34.1 92.7 34.7 92.4 35.3 92.2C35.9 92 36.6 91.9 37.2 91.8C37.8 91.7 38.5 91.6 39.1 91.6C39.7 91.5 40.3 91.4 40.8 91.3C41.3 91.2 41.7 91 41.9 90.8C42.2 90.6 42.3 90.2 42.3 89.8C42.3 89.4 42.2 89 42.1 88.7C41.9 88.4 41.7 88.2 41.5 88.1C41.2 87.9 41 87.8 40.6 87.8C40.3 87.7 39.9 87.7 39.5 87.7C38.7 87.7 38 87.9 37.5 88.2C37 88.6 36.7 89.2 36.7 90H32.4C32.5 89 32.7 88.2 33.2 87.5C33.6 86.8 34.2 86.3 34.9 85.9C35.6 85.5 36.3 85.2 37.2 85C38 84.8 38.9 84.7 39.8 84.7C40.6 84.7 41.4 84.8 42.2 84.9C43 85 43.7 85.2 44.4 85.6C45.1 85.9 45.6 86.4 46 87C46.4 87.6 46.6 88.3 46.6 89.3V97.4C46.6 98.1 46.6 98.8 46.7 99.4C46.8 100 46.9 100.5 47.1 100.8H42.8C42.7 100.6 42.7 100.3 42.6 100.1C42.5 99.8 42.5 99.6 42.5 99.3C41.8 100 41 100.5 40.1 100.8C39.1 101.1 38.1 101.2 37.2 101.2ZM38.7 98.4C39.6 98.4 40.2 98.3 40.7 98C41.2 97.7 41.5 97.4 41.7 97C41.9 96.6 42.1 96.2 42.1 95.8C42.2 95.4 42.2 95.1 42.2 94.8V93.2C42 93.4 41.8 93.5 41.5 93.6C41.2 93.7 40.9 93.8 40.6 93.8C40.3 93.9 39.9 93.9 39.6 94C39.3 94 38.9 94.1 38.6 94.2C38.3 94.3 37.9 94.3 37.6 94.4C37.3 94.5 37 94.6 36.8 94.8C36.6 95 36.4 95.2 36.2 95.4C36.1 95.7 36 96 36 96.4C36 96.8 36.1 97.1 36.2 97.4C36.3 97.7 36.5 97.9 36.8 98C37 98.2 37.3 98.3 37.7 98.3C38.1 98.3 38.4 98.4 38.7 98.4Z" fill="black"/>
<path d="M63.3 101.2C61.8 101.2 60.5 100.9 59.6 100.4C58.6 99.8 57.8 99.1 57.3 98.2C56.7 97.3 56.3 96.3 56.1 95.2C55.9 94.1 55.8 92.9 55.8 91.8C55.8 90.4 55.9 89.1 56 87.9C56.1 86.6 56.4 85.5 56.8 84.5C57.2 83.5 57.9 82.6 58.7 81.8C59.5 81 60.7 80.5 62.1 80.1C62.5 80 63.1 79.9 63.7 79.9C64.3 79.9 64.9 79.8 65.4 79.7C65.9 79.6 66.4 79.6 66.8 79.4C67.2 79.3 67.4 79.1 67.4 78.8H71C70.9 79.8 70.7 80.5 70.4 81.1C70.1 81.7 69.6 82.1 69 82.4C68.4 82.7 67.6 83 66.7 83.1C65.8 83.3 64.7 83.4 63.5 83.5C62.5 83.6 61.7 83.8 61 84.2C60.3 84.6 59.8 85 59.4 85.6C59 86.2 58.7 86.8 58.4 87.5C58.2 88.2 58 88.9 58 89.7H58.1C58.3 89.2 58.5 88.7 58.9 88.1C59.2 87.6 59.6 87.1 60.2 86.7C60.7 86.3 61.3 85.9 62 85.7C62.7 85.4 63.5 85.3 64.4 85.3C65.4 85.3 66.3 85.5 67.2 85.9C68.1 86.3 68.8 86.8 69.5 87.5C70.1 88.2 70.7 89 71 90C71.4 91 71.6 92.1 71.6 93.3C71.6 94.5 71.4 95.6 71 96.6C70.6 97.6 70.1 98.4 69.4 99.1C68.7 99.8 67.8 100.3 66.8 100.7C65.7 101 64.5 101.2 63.3 101.2ZM63.6 98C64.7 98 65.6 97.6 66.2 96.8C66.8 96 67.2 94.8 67.2 93.2C67.2 91.7 66.9 90.5 66.3 89.6C65.7 88.7 64.8 88.3 63.6 88.3C62.5 88.3 61.7 88.7 61 89.6C60.4 90.5 60.1 91.7 60.1 93.2C60.1 94.8 60.4 96 61.1 96.8C61.6 97.6 62.5 98 63.6 98Z" fill="black"/>
<path d="M80.2 85.2H84.3V87.2H84.4C84.9 86.4 85.6 85.7 86.4 85.4C87.2 85 88.1 84.8 89.1 84.8C90.3 84.8 91.4 85 92.3 85.5C93.2 86 93.9 86.6 94.5 87.3C95.1 88.1 95.5 89 95.8 90C96.1 91 96.2 92.1 96.2 93.2C96.2 94.2 96.1 95.3 95.8 96.2C95.5 97.2 95.1 98 94.5 98.8C93.9 99.5 93.2 100.1 92.4 100.6C91.5 101 90.5 101.3 89.4 101.3C88.4 101.3 87.5 101.1 86.7 100.7C85.9 100.3 85.2 99.7 84.7 99H84.6V106.4H80.3V85.2H80.2ZM88.1 98C88.8 98 89.4 97.9 89.9 97.6C90.4 97.3 90.8 97 91.1 96.5C91.4 96 91.6 95.5 91.7 94.9C91.8 94.3 91.9 93.7 91.9 93C91.9 92.4 91.8 91.8 91.7 91.2C91.6 90.6 91.4 90.1 91 89.6C90.7 89.1 90.3 88.7 89.8 88.5C89.3 88.2 88.7 88.1 88.1 88.1C87.4 88.1 86.8 88.2 86.3 88.5C85.8 88.8 85.4 89.2 85.1 89.6C84.8 90.1 84.6 90.6 84.5 91.2C84.4 91.8 84.3 92.4 84.3 93.1C84.3 93.7 84.4 94.4 84.5 95C84.6 95.6 84.8 96.1 85.1 96.6C85.4 97.1 85.8 97.4 86.3 97.7C86.8 97.9 87.4 98 88.1 98Z" fill="black"/>
<path d="M104.7 85.2H108.8V95.8L114.7 85.2H119.6V100.8H115.5V90.2L109.6 100.8H104.7V85.2Z" fill="black"/>
<path d="M133.1 85.2V91.8L138.8 85.2H143.8L137.9 91.4L144.7 100.8H139.5L135.1 94.3L133 96.5V100.8H128.7V85.2H133.1Z" fill="black"/>
<path d="M156.9 101.2C156.2 101.2 155.5 101.1 154.8 100.9C154.2 100.7 153.6 100.4 153.1 100.1C152.6 99.7 152.2 99.2 152 98.7C151.7 98.1 151.6 97.4 151.6 96.6C151.6 95.7 151.8 95 152.1 94.4C152.4 93.8 152.8 93.4 153.3 93C153.8 92.7 154.4 92.4 155 92.2C155.6 92 156.3 91.9 156.9 91.8C157.5 91.7 158.2 91.6 158.8 91.6C159.4 91.5 160 91.4 160.5 91.3C161 91.2 161.4 91 161.7 90.8C162 90.6 162.1 90.2 162.1 89.8C162.1 89.4 162 89 161.9 88.7C161.7 88.4 161.5 88.2 161.3 88.1C161 87.9 160.8 87.8 160.4 87.8C160.1 87.7 159.7 87.7 159.3 87.7C158.5 87.7 157.8 87.9 157.3 88.2C156.8 88.6 156.5 89.2 156.5 90H152C152.1 89 152.3 88.2 152.8 87.5C153.2 86.8 153.8 86.3 154.5 85.9C155.2 85.5 155.9 85.2 156.8 85C157.6 84.8 158.5 84.7 159.4 84.7C160.2 84.7 161 84.8 161.8 84.9C162.6 85 163.3 85.2 164 85.6C164.7 85.9 165.2 86.4 165.6 87C166 87.6 166.2 88.3 166.2 89.3V97.4C166.2 98.1 166.2 98.8 166.3 99.4C166.4 100 166.5 100.5 166.7 100.8H162.4C162.3 100.6 162.3 100.3 162.2 100.1C162.2 99.8 162.1 99.6 162.1 99.3C161.4 100 160.6 100.5 159.7 100.8C158.8 101.1 157.8 101.2 156.9 101.2ZM158.4 98.4C159.3 98.4 159.9 98.3 160.4 98C160.9 97.7 161.2 97.4 161.4 97C161.6 96.6 161.8 96.2 161.8 95.8C161.9 95.4 161.9 95.1 161.9 94.8V93.2C161.7 93.4 161.5 93.5 161.2 93.6C160.9 93.7 160.6 93.8 160.3 93.8C160 93.9 159.6 93.9 159.3 94C159 94 158.6 94.1 158.3 94.2C158 94.3 157.6 94.3 157.3 94.4C157 94.5 156.7 94.6 156.5 94.8C156.3 95 156.1 95.2 155.9 95.4C155.8 95.7 155.7 96 155.7 96.4C155.7 96.8 155.8 97.1 155.9 97.4C156 97.7 156.2 97.9 156.5 98C156.7 98.2 157 98.3 157.4 98.3C157.8 98.3 158.1 98.4 158.4 98.4Z" fill="black"/>
<path d="M188.6 97.6H190.5C190.7 97.2 190.9 96.6 191.2 95.9C191.4 95.2 191.6 94.5 191.8 93.7C192 92.9 192.1 92 192.3 91C192.4 90 192.5 89 192.5 88V85.3H204.9V97.7H206.9V105.2H202.9V100.9H192.6V105.2H188.6V97.6ZM200.6 97.6V88.4H196.4V88.8C196.4 89.8 196.3 90.7 196.2 91.6C196.1 92.5 195.9 93.3 195.8 94.1C195.6 94.9 195.4 95.5 195.2 96.1C195 96.7 194.8 97.2 194.6 97.6H200.6Z" fill="black"/>
<path d="M215 85.2H224C224.7 85.2 225.3 85.3 225.9 85.4C226.5 85.6 227 85.8 227.5 86.1C228 86.4 228.3 86.8 228.6 87.3C228.9 87.8 229 88.4 229 89.1C229 89.9 228.8 90.5 228.4 91.1C228 91.7 227.5 92.1 226.9 92.4C227.7 92.6 228.4 93 228.9 93.7C229.4 94.3 229.7 95.2 229.7 96.3C229.7 97.1 229.6 97.7 229.3 98.3C229 98.9 228.7 99.4 228.2 99.8C227.7 100.2 227.2 100.5 226.5 100.7C225.9 100.9 225.2 101 224.4 101H215V85.2ZM222 91.5C222.3 91.5 222.6 91.5 222.9 91.4C223.2 91.4 223.5 91.3 223.7 91.1C223.9 91 224.1 90.8 224.3 90.6C224.4 90.4 224.5 90.1 224.5 89.6C224.5 89.2 224.4 88.9 224.3 88.7C224.2 88.5 224 88.3 223.7 88.2C223.5 88.1 223.2 88 222.9 88C222.6 88 222.3 87.9 222 87.9H219.2V91.5H222ZM222.4 98C222.8 98 223.1 98 223.5 97.9C223.8 97.8 224.1 97.8 224.4 97.6C224.7 97.5 224.9 97.3 225 97C225.2 96.7 225.2 96.4 225.2 95.9C225.2 95.5 225.1 95.1 224.9 94.8C224.7 94.5 224.5 94.3 224.2 94.2C223.9 94.1 223.6 94 223.2 93.9C222.8 93.9 222.5 93.8 222.1 93.8H219.1V98H222.4Z" fill="black"/>
<path d="M245.6 101.2C244.4 101.2 243.3 101 242.3 100.6C241.3 100.2 240.5 99.6 239.8 98.9C239.1 98.2 238.6 97.3 238.2 96.3C237.8 95.3 237.6 94.2 237.6 93C237.6 91.8 237.8 90.7 238.2 89.7C238.6 88.7 239.1 87.8 239.8 87.1C240.5 86.4 241.3 85.8 242.3 85.4C243.3 85 244.4 84.8 245.5 84.8C246.7 84.8 247.9 85 248.8 85.5C249.8 86 250.6 86.6 251.2 87.4C251.8 88.2 252.3 89.1 252.6 90.1C252.9 91.1 253.1 92.2 253.1 93.3C253.1 93.4 253.1 93.6 253.1 93.7C253.1 93.8 253.1 94 253.1 94.1H241.8C241.9 95.5 242.2 96.5 242.9 97.1C243.5 97.7 244.5 98 245.7 98C246.6 98 247.3 97.8 247.9 97.4C248.5 97 248.9 96.5 249 96H252.8C252.2 97.9 251.3 99.2 250 100C248.9 100.8 247.4 101.2 245.6 101.2ZM248.9 91.3C248.7 90.2 248.3 89.4 247.8 88.8C247.3 88.2 246.5 88 245.5 88C244.8 88 244.2 88.1 243.8 88.3C243.4 88.5 243 88.8 242.7 89.2C242.4 89.5 242.2 89.9 242.1 90.3C242 90.7 241.9 91 241.9 91.3H248.9Z" fill="black"/>
<path d="M261.8 85.2H265.9V87.2H266C266.5 86.4 267.2 85.7 268 85.4C268.8 85 269.7 84.8 270.7 84.8C271.9 84.8 273 85 273.9 85.5C274.8 86 275.5 86.6 276.1 87.3C276.7 88.1 277.1 89 277.4 90C277.7 91 277.8 92.1 277.8 93.2C277.8 94.2 277.7 95.3 277.4 96.2C277.1 97.2 276.7 98 276.1 98.8C275.5 99.5 274.8 100.1 274 100.6C273.1 101 272.1 101.3 271 101.3C270 101.3 269.1 101.1 268.3 100.7C267.5 100.3 266.8 99.7 266.3 99H266.2V106.4H261.9V85.2H261.8ZM269.7 98C270.4 98 271 97.9 271.5 97.6C272 97.3 272.4 97 272.7 96.5C273 96 273.2 95.5 273.3 94.9C273.4 94.3 273.5 93.7 273.5 93C273.5 92.4 273.4 91.8 273.3 91.2C273.2 90.6 273 90.1 272.6 89.6C272.3 89.1 271.9 88.7 271.4 88.5C270.9 88.2 270.3 88.1 269.7 88.1C269 88.1 268.4 88.2 267.9 88.5C267.4 88.8 267 89.2 266.7 89.6C266.4 90.1 266.2 90.6 266.1 91.2C266 91.8 265.9 92.4 265.9 93.1C265.9 93.7 266 94.4 266.1 95C266.2 95.6 266.4 96.1 266.7 96.6C267 97.1 267.4 97.4 267.9 97.7C268.4 97.9 269 98 269.7 98Z" fill="black"/>
<path d="M293.4 101.2C292.2 101.2 291.1 101 290.1 100.6C289.1 100.2 288.3 99.6 287.6 98.9C286.9 98.2 286.4 97.3 286 96.3C285.6 95.3 285.4 94.2 285.4 93C285.4 91.8 285.6 90.7 286 89.7C286.4 88.7 286.9 87.8 287.6 87.1C288.3 86.4 289.1 85.8 290.1 85.4C291.1 85 292.2 84.8 293.3 84.8C294.5 84.8 295.6 85 296.6 85.5C297.6 86 298.3 86.6 299 87.4C299.6 88.2 300.1 89.1 300.4 90.1C300.7 91.1 300.9 92.2 300.9 93.3C300.9 93.4 300.9 93.6 300.9 93.7C300.9 93.8 300.9 94 300.9 94.1H289.6C289.7 95.5 290 96.5 290.7 97.1C291.3 97.7 292.3 98 293.5 98C294.4 98 295.1 97.8 295.7 97.4C296.3 97 296.7 96.5 296.8 96H300.6C300 97.9 299.1 99.2 297.8 100C296.7 100.8 295.2 101.2 293.4 101.2ZM296.7 91.3C296.5 90.2 296.1 89.4 295.6 88.8C295.1 88.2 294.3 88 293.3 88C292.6 88 292 88.1 291.6 88.3C291.2 88.5 290.8 88.8 290.5 89.2C290.2 89.5 290 89.9 289.9 90.3C289.8 90.7 289.7 91 289.7 91.3H296.7Z" fill="black"/>
<path d="M309.6 85.2H313.7V95.8L319.6 85.2H324.5V100.8H320.4V90.2L314.5 100.8H309.6V85.2ZM317 83.3C316.3 83.3 315.7 83.2 315.1 83.1C314.5 82.9 314 82.7 313.6 82.3C313.2 81.9 312.8 81.5 312.6 81C312.4 80.5 312.2 79.8 312.2 79H313.9C314 79.7 314.4 80.2 314.9 80.5C315.4 80.8 316.1 81 317 81C317.8 81 318.5 80.8 319.1 80.5C319.6 80.2 320 79.7 320.1 79H321.8C321.8 79.8 321.7 80.4 321.4 81C321.2 81.5 320.8 82 320.4 82.3C320 82.7 319.5 82.9 318.9 83.1C318.3 83.3 317.7 83.3 317 83.3Z" fill="black"/>
<path d="M132.2 67.3H108.4L97.4 45.7H90V67.3H68.2V0.9H103C112.1 0.9 119.2 3.2 124.5 7.7C129.2 11.8 131.6 16.7 131.6 22.4C131.6 26.7 130.2 30.7 127.4 34.3C124.6 38 120.7 40.6 115.8 42.1L132.2 67.3ZM90.1 17.1V29.6H99.3C101.9 29.6 103.9 29 105.3 27.7C106.8 26.5 107.5 25 107.5 23.3C107.5 21.7 106.8 20.2 105.3 19C103.8 17.7 101.8 17.1 99.3 17.1H90.1Z" fill="black"/>
<path d="M0 67.3V0.9H36.1C43.4 0.9 49.1 2.8 53.3 6.6C57 9.9 58.8 14 58.8 18.7C58.8 21.5 58.1 24 56.6 26.3C55.2 28.6 53.1 30.3 50.5 31.4C54.1 32.6 57 34.7 59.1 37.7C61.2 40.7 62.3 44.1 62.3 47.8C62.3 53.1 60.4 57.5 56.5 61.1C52.1 65.2 45.8 67.3 37.9 67.3H0ZM32.6 17.1H21.7V27.9H30.7C33.2 27.9 35.2 27.3 36.6 26.1C38 24.9 38.8 23.5 38.8 22C38.8 20.6 38.3 19.5 37.3 18.5C36.3 17.5 34.7 17.1 32.6 17.1ZM34.3 40.4H21.7V51.2H34.3C36.4 51.2 38 50.7 39.2 49.8C40.3 48.9 40.9 47.8 40.9 46.4C40.9 44.8 40.3 43.5 39.2 42.2C38 41 36.4 40.4 34.3 40.4Z" fill="black"/>
<path d="M309.9 4.9C305 1.7 299 0 292.1 0C272.2 0 259.2 13.3 259.2 33.6C259.2 46.6 264.6 56.8 273.8 62.4C278.7 65.5 284.7 67.3 291.6 67.3C311.5 67.3 324.5 54 324.5 33.7C324.5 20.7 319 10.5 309.9 4.9ZM279.5 34.5C279.5 22.4 283.8 16 291.8 16C297.3 16 301.2 19 303.2 24.6C304 26.9 304.4 29.7 304.4 32.8C304.4 44.9 300.1 51.3 292.1 51.3C286.6 51.3 282.7 48.3 280.7 42.7C279.9 40.4 279.5 37.7 279.5 34.5Z" fill="black"/>
<path d="M239.8 0.6C239.8 0.6 226.7 36.1 225.6 40.7C224.7 36.3 211.7 0.6 211.7 0.6H188.9L213.6 67.3H238L262.8 0.6H239.8Z" fill="black"/>
<path d="M180.6 67.3H203.4L178.7 0.6H154.3L133.3 57.1L140 67.3H152.4C152.4 67.3 153.6 64.1 155.3 59.4H177.7C179.4 64.1 180.6 67.3 180.6 67.3ZM160.9 43.8C163.7 36.1 166.1 29.1 166.6 27.2C167 29 169.4 36.1 172.1 43.8H160.9Z" fill="black"/>
</svg>
